<svg width="91" height="85" fill="none" xmlns="http://www.w3.org/2000/svg"><path fill-rule="evenodd" clip-rule="evenodd" d="M90.827 4.86c.22.383-.094.628-.409.874-.045.035-.09.07-.133.106-.382.311-.55.68-.718 1.044-.202.44-.402.874-.968 1.201-.491.284-.71.33-.939.379-.255.053-.524.11-1.196.498-1.468.848-3.02 3.183-3.7 4.22-.404.15.57-1.14 1.444-2.299.642-.85 1.23-1.63 1.18-1.717-.117-.204-2.875 1.66-4.092 2.947.506-1.413 3.318-3.014 4.874-3.9l.408-.233c1.406-.812.28-1.14-.212-1.106-.236.016-.316-.173-.4-.373-.092-.217-.19-.447-.497-.443-.277.004-.326-.147-.377-.307-.059-.181-.12-.374-.521-.363-.34.009-.3-.1-.255-.225.055-.153.119-.33-.498-.34-.592-.012-.606-.053-.642-.161-.033-.096-.083-.245-.575-.471-.49-.226-.26-.279-.053-.327.235-.054.443-.103-.444-.386-.943-.302-.662-.409-.435-.495.175-.067.318-.121-.162-.244-.63-.162-.555-.265-.472-.379.062-.084.128-.174-.089-.298-.29-.165-.114-.246.027-.312.106-.048.192-.088.049-.148-.337-.14-1.667-1.705-.334-.724 1.334.98 3.316 1.609 4.215 1.84.9.23 1.9.486 2.478 1.486.577 1 1.643.78 2.09.522.447-.259 1.103-.304 1.356.134zM10.639 77.972c.038-1.091-.353-1.224-1.003-1.446l-.107-.037c.485-.261 1.312-.928.736-1.504l.182-.47-.486.26c-.51-.22-1.058.13-1.303.376 0 0 .041-.425-.295-.761-1.818-1.352-7.003.183-7.003.183s4.207.848 4.801 1.442c.415.414.076.693-.361 1.053-.222.182-.469.385-.656.636-.435.585-1.781 1.4-2.855 2.051-.793.48-1.438.871-1.456 1.012.63-.202 1.463-.656 2.169-1.04.721-.391 1.308-.71 1.405-.613.192.192-1.401 1.305-2.856 2.183.192.193 2.79-1.316 3.618-1.888.575-.399.6-.4.832-.407.101-.003.242-.008.486-.048.286-.046.487-.142.655-.221.306-.146.504-.24.906.102.803.683.645 5.405.645 5.405s1.823-2.75 1.946-6.268zm52.656-6.4c.01-.23.018-.447.266-.741.092-.11.302-.485.328-.6l.284-.543-.367-.058c-.265-.265-.505-.468-.947-.326-.229.073-.29.149-.366.245a1.288 1.288 0 01-.1.114c-.37-.336-1.146-1.146-1.28-1.692-.166-.683-1.066-1.48-3.124-2.712l-.42-.251c-1.884-1.13-3.452-2.072-2.265-.885.65.65.735.843.795.981.059.133.096.217.587.608.55.436.375.457.24.473-.11.013-.195.023.19.266.529.335.728.584.986.906.154.191.328.409.605.686.423.423.522.689.606.918.064.173.12.325.303.507.287.287-.534.434-1.349.58-.392.07-.782.14-1.047.225-3.596 1.155-6.036 2.64-6.188 3.003-.046.11.156.042.563-.097.939-.32 2.971-1.015 5.602-.76 2.045.29 2.827.038 2.827.038s.06.936-.29 1.776l-.102.242c-.496 1.175-2.116 5.016-1.963 5.644.06.25.21-.2.451-.927.418-1.258 1.112-3.346 2.097-4.063-.084 1.465-.07 2.512.472 3.88-.002-.167-.007-.37-.013-.594-.023-.949-.057-2.289.07-2.964.21-1.127.74-1.599 1.4-2.188.192-.17.394-.35.603-.559.523-.523.535-.837.546-1.132zm19.715-26.05c.43.248.189 1.093.189 1.093.824-.22 1.566.779 2.329 1.807.199.268.4.538.603.789 1.074 1.322 2.617 4.136 1.897 3.393-.318-.33-.72-.556-1.15-.797-.54-.305-1.121-.632-1.626-1.216-.364-.422-2.86-2.434-3.455-1.831-.875.885-1.477 2.541-1.786 3.392-.129.354-.207.568-.232.53-.038-.058.14-.6.338-1.2.256-.777.546-1.654.441-1.714-.177-.103-.753.627-1.258 1.267-.371.47-.705.893-.814.9-.087.006.14-.316.476-.794.647-.92 1.701-2.418 1.71-3.276.007-.531-.137-.696-.504-1.118a12.753 12.753 0 01-.624-.765c-.676-.9-1.832-1.753-2.764-2.441l-.353-.26c-.975-.728 2.995.497 4.164 1.172 1.169.675 1.536 1.461 1.536 1.461s.538-.591.883-.392zm-42.387-5.1c.143-.425.285-.848.783-.707.498.141.57.565.285.918-.285.353-.143.989.996.918.381-.023.754.002 1.162.03.809.056 1.755.121 3.178-.171l.126-.029c.51-.12 2.092-.49.366.398-.688.494-2.783 1.708-4.548 1.82-.686.045-1.2.048-1.603.05-.896.005-1.25.007-1.741.445-.127.113-.305.255-.516.424-.977.778-2.658 2.117-3.184 3.744-.64 1.977-.22-.691.279-1.397.078-.112.166-.227.257-.347.484-.637 1.056-1.39.816-2.283-.285-1.06-1.287-1.467-2.639-1.255-1.352.212-.065-.565 2.639-.283 2.422.253 1.87-.117 1.524-.35a2.344 2.344 0 01-.107-.074c-.285-.212-1.067-.777-2.063-1.06-.997-.282-2.556-1.428-2.627-2.77-.033-.61.068-.504.36-.194.352.371.98 1.036 1.988 1.113l.682.048c1.354.092 1.95.132 2.443.744.452.562.971.34 1.14.268h.004z" fill="#191B1D"/></svg>