<svg width="171" height="107" fill="none" xmlns="http://www.w3.org/2000/svg"><path fill-rule="evenodd" clip-rule="evenodd" d="M161.141 5.618c.477-.633.954-1.265.334-1.885-.709-.71-1.942-.286-2.667.439-.724.724-2.653 1.695-4.273.074-1.621-1.62-3.668-1.597-5.512-1.577-1.843.02-5.964-.167-9.022-1.362-3.059-1.195.295 1.123 1.01 1.218.307.04.162.161-.016.309-.238.197-.534.443.108.611.479.126.399.332.324.526-.102.26-.194.497 1.099.483.982-.011.736.167.434.385-.39.281-.873.63 1.089.724 1.846.088 1.472.287 1.049.513-.374.199-.786.418.27.599 1.059.181 1.231.44 1.343.608.124.188.172.26 1.313-.023 1.188-.295 1.156.076 1.129.397-.023.262-.042.491.604.3.763-.226.98.11 1.184.428.181.28.352.546.882.396.588-.166.892.225 1.179.594.265.34.515.661.959.509.925-.317 3.252-.268.974 2.01-.199.198-.421.418-.663.656-2.527 2.497-7.093 7.009-7.338 9.977 1.672-3.09 6-8.08 6.331-7.748.14.14-.587 1.936-1.381 3.896-1.08 2.67-2.284 5.642-1.586 5.146.77-2.336 2.545-7.608 4.923-9.986 1.089-1.089 1.575-1.336 2.036-1.57.415-.21.809-.41 1.605-1.206.918-.918 1.077-1.854 1.238-2.8.134-.785.268-1.577.839-2.37.065-.09.134-.18.202-.271zM15.587 96.282c.45-.35.9-.702.584-1.248-.361-.625-1.297-.56-1.936-.192-.639.369-2.16.684-2.985-.744-.824-1.428-2.252-1.794-3.537-2.123-1.285-.33-4.115-1.227-6.018-2.627-1.904-1.4-.005.835.475 1.034.206.086.082.142-.069.212-.202.093-.453.209-.038.445.31.177.215.305.127.426-.12.162-.227.31.674.54.685.176.48.254.23.349-.324.123-.724.275.622.706 1.267.405.97.474.634.552-.297.069-.624.144.076.467.702.323.774.535.82.672.052.154.072.213.917.229.88.016.79.268.71.486-.064.178-.12.334.365.322.573-.015.66.26.744.518.073.228.142.445.538.44.44-.007.579.322.71.632.12.285.234.555.571.532.702-.048 2.31.42.303 1.578l-.583.334c-2.221 1.265-6.236 3.55-6.96 5.568 1.739-1.836 5.676-4.499 5.845-4.207.071.123-.769 1.237-1.686 2.451v.001c-1.248 1.654-2.638 3.496-2.06 3.281.97-1.48 3.185-4.815 5.281-6.024.96-.555 1.344-.636 1.708-.713.328-.069.64-.135 1.34-.54.81-.466 1.095-1.087 1.382-1.715.24-.52.48-1.046 1.026-1.491.062-.051.126-.101.19-.151zm149.595-52.62c-1.327-1.422-1.989-1.097-3.087-.558l-.181.089c.283-.941.484-2.823-.968-2.823l-.363-.823-.285.941c-.916.366-1.167 1.498-1.167 2.117 0 0-.484-.588-1.331-.588-3.993.588-8.591 9.054-8.591 9.054s6.369-4.233 7.865-4.233c1.045 0 .969.777.871 1.782-.05.508-.105 1.075-.024 1.628.189 1.285-.48 4.01-1.013 6.181-.394 1.605-.714 2.908-.56 3.108.539-1.047 1.018-2.669 1.424-4.04.414-1.403.752-2.545.996-2.545.484 0-.121 3.41-.847 6.35.484 0 1.858-5.174 2.178-6.938.223-1.227.253-1.259.536-1.56.124-.132.296-.316.553-.674.301-.418.434-.79.546-1.104.202-.568.333-.937 1.27-1.012 1.873-.152 7.623 5.997 7.623 5.997s-1.169-5.762-5.445-10.348zM97.346 35.54c.24-.222.468-.433 1.016-.48.204-.018.795-.185.938-.275l.834-.26-.312-.43c0-.535-.038-.983-.626-1.285-.305-.157-.443-.142-.618-.122a1.88 1.88 0 01-.216.014c-.035-.714 0-2.314.417-3 .521-.857.417-2.572-.417-5.894l-.168-.672-.002-.005c-.76-3.043-1.394-5.577-1.394-3.18 0 1.314-.109 1.592-.188 1.794-.075.193-.123.315-.02 1.206.113.994-.084.84-.235.72-.126-.1-.22-.174-.078.459.196.873.146 1.325.082 1.91-.039.349-.082.745-.082 1.304 0 .855-.17 1.223-.315 1.54-.11.239-.207.449-.207.818 0 .579-.977-.102-1.947-.777-.467-.325-.932-.649-1.285-.83-4.796-2.465-8.758-3.43-9.28-3.215-.157.065.115.198.668.47 1.27.623 4.024 1.974 6.423 4.888 1.772 2.357 2.815 2.893 2.815 2.893s-.883 1.006-2.086 1.5l-.343.14-.003.002c-1.688.685-7.202 2.927-7.682 3.716-.19.314.415.01 1.392-.48 1.692-.848 4.5-2.256 6.22-1.985-1.565 1.393-2.607 2.465-3.441 4.394.166-.17.365-.38.585-.612h.001c.934-.983 2.253-2.37 3.063-2.924 1.35-.925 2.362-.867 3.623-.794.365.021.752.044 1.173.044 1.056 0 1.386-.306 1.695-.592zM71.449 85.827c-.45.314-.543.611-.64.924-.125.403-.258.832-1.172 1.36-.365.21-.71.384-1.038.548-1.129.568-2.034 1.023-2.74 2.5-.424.884-.873 2.745-1.191 4.063-.075.311-.143.593-.202.823-.242-2.087.125-3.536.783-5.525-1.624.624-3.352 3.248-4.393 4.829-.602.913-.974 1.478-.966 1.111.021-.923 3.676-5.621 4.795-7.06l.229-.295c.794-1.029 1.056-2.342 1.056-2.342s-1.171.058-3.885-1.098c-3.534-1.324-6.594-1.117-8.007-1.022-.614.042-.916.062-.812-.073.344-.446 4.258-1.592 9.644-1.856.396-.02.96.029 1.527.077 1.178.1 2.365.2 2.076-.3-.185-.32-.207-.55-.23-.813-.033-.347-.07-.75-.498-1.49-.28-.485-.44-.85-.58-1.17-.238-.54-.42-.956-1.027-1.614-.44-.477-.32-.46-.162-.437.191.028.44.064-.157-.74-.534-.72-.553-.85-.584-1.055-.033-.214-.078-.51-.735-1.648-1.198-2.075.617-.198 2.798 2.057l.485.502c2.383 2.46 3.33 3.892 3.308 4.895-.018.803.752 2.206 1.14 2.808.072-.042.127-.084.18-.122.14-.104.252-.186.595-.203.66-.032.917.337 1.185.801l.485.215-.592.643c-.08.15-.507.59-.675.707zm48.376.368s.426-1.488-.333-1.926c-.607-.35-1.555.691-1.555.691s-.646-1.384-2.706-2.573c-2.059-1.19-9.051-3.347-7.333-2.066l.62.459c1.643 1.212 3.679 2.713 4.869 4.3.451.6.814 1.018 1.1 1.346.646.744.899 1.035.888 1.97-.017 1.511-1.873 4.15-3.013 5.77-.593.843-.992 1.41-.838 1.4.191-.012.779-.757 1.434-1.587.89-1.127 1.904-2.411 2.216-2.231.184.106-.326 1.65-.777 3.02-.349 1.058-.664 2.01-.596 2.112.045.069.182-.31.409-.933.545-1.498 1.605-4.415 3.145-5.975 1.049-1.061 5.446 2.483 6.087 3.225.889 1.03 1.913 1.606 2.865 2.142.755.425 1.464.825 2.025 1.404 1.267 1.31-1.45-3.646-3.342-5.976a39.815 39.815 0 01-1.062-1.39c-1.344-1.81-2.651-3.57-4.103-3.182z" fill="#000"/></svg>